<svg xmlns="http://www.w3.org/2000/svg" width="36" height="37" viewBox="0 0 36 37">
  <metadata><?xpacket begin="﻿" id="W5M0MpCehiHzreSzNTczkc9d"?>
<x:xmpmeta xmlns:x="adobe:ns:meta/" x:xmptk="Adobe XMP Core 5.6-c142 79.160924, 2017/07/13-01:06:39        ">
   <rdf:RDF xmlns:rdf="http://www.w3.org/1999/02/22-rdf-syntax-ns#">
      <rdf:Description rdf:about=""/>
   </rdf:RDF>
</x:xmpmeta>
                                                                                                    
                                                                                                    
                                                                                                    
                                                                                                    
                                                                                                    
                                                                                                    
                                                                                                    
                                                                                                    
                                                                                                    
                                                                                                    
                                                                                                    
                                                                                                    
                                                                                                    
                                                                                                    
                                                                                                    
                                                                                                    
                                                                                                    
                                                                                                    
                                                                                                    
                                                                                                    
                           
<?xpacket end="w"?></metadata>
<defs>
    <style>
      .cls-1 {
        fill: #fff;
        fill-rule: evenodd;
      }
    </style>
  </defs>
  <path id="Rectangle_9_copy_2" data-name="Rectangle 9 copy 2" class="cls-1" d="M517.572,580.573c-4.239,6.251-5.743,8.032-5.492,11.65s-0.467,4.613-2.175,4.791-4.915-.755-5.478-6.676c-0.243-2.562,1.584-7.607,1.584-7.607l-12.784-.008c-1.81,0-3.228-.775-3.228-3.247,0-2.317,2.557-3.013,2.557-3.013a2.78,2.78,0,0,1-1.636-2.588,2.854,2.854,0,0,1,2.824-2.862,2.4,2.4,0,0,1-1.458-2.7,3.153,3.153,0,0,1,2.6-2.664,2.448,2.448,0,0,1-.9-2.793c0.574-1.358,2.089-2.854,5.492-2.854h15.893a2.237,2.237,0,0,1,2.287,1.229V579.82A2.647,2.647,0,0,1,517.572,580.573ZM518.781,560H525v21.781h-6.219V560Zm1,0H526v21.781h-6.219V560Z" transform="translate(-490 -560)"/>
</svg>
